<svg width="32" height="32" viewBox="0 0 32 32" fill="none" xmlns="http://www.w3.org/2000/svg">
  <rect width="32" height="32" rx="8" fill="#3b82f6"/>
  <path d="M11 7.5h10a1.5 1.5 0 0 1 1.5 1.5v15.2c0 .6-.7 1-1.2.6l-1.4-1a1 1 0 0 0-1.2 0l-1.3 1a1 1 0 0 1-1.2 0l-1.3-1a1 1 0 0 0-1.2 0l-1.3 1a1 1 0 0 1-1.2 0l-1.4-1c-.5-.4-1.2 0-1.2-.6V9A1.5 1.5 0 0 1 11 7.5Z" fill="#fff" fill-opacity="0.95"/>
  <path d="m12.8 15.4 2 2 4-4.2" stroke="#3b82f6" stroke-width="1.8" stroke-linecap="round" stroke-linejoin="round"/>
</svg>
